# xmcd CD database file
#
# Track frame offsets:
#	187
#	20347
#	36927
#	53205
#	73242
#	88395
#	105810
#	121060
#	138367
#	154967
#	170182
#	189792
#
# Disc length: 2821 seconds
#
# Revision: 3
# Processed by: cddbd v1.5.2PL0 Copyright (c) Steve Scherf et al.
# Submitted via: CDex 1.51
#
DISCID=a00b030c
DTITLE=TERRA NOVA - MAKE MY DAY
DYEAR=1999
DGENRE=Hard Rock
TTITLE0=Lovesick
TTITLE1=Make My Day
TTITLE2=Eye To Eye
TTITLE3=Here's To You
TTITLE4=Anomaly
TTITLE5=Wild Thing
TTITLE6=I Can't Wait
TTITLE7=Nothing
TTITLE8=Where I Stand
TTITLE9=I Will Be There
TTITLE10=Promise You Wait
TTITLE11=How
EXTD=YEAR: 1999
EXTT0=
EXTT1=
EXTT2=
EXTT3=
EXTT4=
EXTT5=
EXTT6=
EXTT7=
EXTT8=
EXTT9=
EXTT10=
EXTT11=
PLAYORDER=
